<svg width="20px" height="20px" viewBox="0 0 20 20" fill="none" xmlns="http://www.w3.org/2000/svg"><path d="M13.3333 2.8898C14.5681 3.50343 15.4167 4.77762 15.4167 6.25C15.4167 7.72238 14.5681 8.99658 13.3333 9.61017M15 13.972C16.2596 14.5419 17.3937 15.4708 18.3333 16.6667M1.66666 16.6667C3.28874 14.6022 5.49098 13.3333 7.91666 13.3333C10.3423 13.3333 12.5446 14.6022 14.1667 16.6667M11.6667 6.25C11.6667 8.32107 9.98775 10 7.91666 10C5.8456 10 4.16666 8.32107 4.16666 6.25C4.16666 4.17893 5.8456 2.5 7.91666 2.5C9.98775 2.5 11.6667 4.17893 11.6667 6.25Z" stroke="currentColor" stroke-width="1.5" stroke-linecap="round" stroke-linejoin="round"></path></svg>
